<?xml version="1.0" encoding="UTF-8"?>
<!DOCTYPE svg PUBLIC "-//W3C//DTD SVG 1.1//EN" "http://www.w3.org/Graphics/SVG/1.1/DTD/svg11.dtd">
<svg xmlns="http://www.w3.org/2000/svg" version="1.1" width="1608px" height="1625px" style="shape-rendering:geometricPrecision; text-rendering:geometricPrecision; image-rendering:optimizeQuality; fill-rule:evenodd; clip-rule:evenodd" xmlns:xlink="http://www.w3.org/1999/xlink">
<g><path style="opacity:0.991" fill="#d39403" d="M 730.5,151.5 C 914.318,141.054 1076.65,194.22 1217.5,311C 1352.27,429.021 1430.44,577.521 1452,756.5C 1468.75,955.923 1411.41,1130.26 1280,1279.5C 1164.01,1404.58 1020.84,1477.42 850.5,1498C 650.223,1515.56 475.223,1458.23 325.5,1326C 200.13,1209.77 127.296,1066.27 107,895.5C 89.7398,691.271 149.74,513.937 287,363.5C 386.878,258.288 508.378,191.121 651.5,162C 677.842,157.428 704.175,153.928 730.5,151.5 Z M 861.5,333.5 C 863.017,333.511 864.184,334.177 865,335.5C 1007.08,604.658 1149.41,873.658 1292,1142.5C 1297.81,1153.77 1303.31,1165.11 1308.5,1176.5C 1295.16,1176.67 1281.83,1176.5 1268.5,1176C 1136.13,924.088 1003.63,672.254 871,420.5C 870.439,419.978 869.772,419.645 869,419.5C 860.157,425.201 855.49,433.201 855,443.5C 985.842,687.182 1116.18,931.182 1246,1175.5C 1246.67,1176.5 1246.67,1177.5 1246,1178.5C 1236.44,1180.19 1227.44,1178.52 1219,1173.5C 1095.19,938.548 970.858,703.881 846,469.5C 842.471,464.262 839.137,464.262 836,469.5C 707.333,704.833 578.667,940.167 450,1175.5C 439.333,1176.83 428.667,1176.83 418,1175.5C 417.333,1173.83 417.333,1172.17 418,1170.5C 421.061,1163.38 424.394,1156.38 428,1149.5C 572.258,877.315 716.758,605.315 861.5,333.5 Z M 695.5,351.5 C 717.674,392.513 738.841,434.18 759,476.5C 759.667,477.833 759.667,479.167 759,480.5C 636.5,712.167 514,943.833 391.5,1175.5C 382.573,1177.33 373.573,1178.16 364.5,1178C 363.325,1175.16 363.491,1172.33 365,1169.5C 483.667,945.5 602.333,721.5 721,497.5C 725.328,489.846 728.828,481.846 731.5,473.5C 730.5,469.167 727.833,466.5 723.5,465.5C 721.372,466.054 719.872,467.387 719,469.5C 593.245,705.341 467.745,941.341 342.5,1177.5C 335.524,1178.66 328.524,1178.83 321.5,1178C 320.128,1177.6 318.795,1177.1 317.5,1176.5C 316.417,1175.64 316.251,1174.64 317,1173.5C 446.333,929.5 575.667,685.5 705,441.5C 706.914,438.702 707.914,435.702 708,432.5C 704.915,428.907 701.415,425.907 697.5,423.5C 695.971,423.529 694.804,424.196 694,425.5C 561.255,674.659 428.255,923.659 295,1172.5C 293.356,1175.31 291.19,1177.64 288.5,1179.5C 277.097,1177.99 265.764,1176.16 254.5,1174C 252.476,1172.54 252.309,1170.71 254,1168.5C 401.179,896.14 548.346,623.806 695.5,351.5 Z M 842.5,500.5 C 843.794,501.29 844.961,502.29 846,503.5C 963.588,727.009 1080.92,950.676 1198,1174.5C 1198.49,1176.13 1198.66,1177.8 1198.5,1179.5C 1190.86,1180.52 1183.19,1180.69 1175.5,1180C 1170.83,1178.19 1167.33,1175.02 1165,1170.5C 1051.91,955.324 939.078,739.991 826.5,524.5C 831.467,516.21 836.8,508.21 842.5,500.5 Z M 816.5,540.5 C 818.017,540.511 819.184,541.177 820,542.5C 927.255,748.009 1034.26,953.676 1141,1159.5C 1144.12,1165.58 1147.62,1171.42 1151.5,1177C 1150.83,1177.67 1150.17,1178.33 1149.5,1179C 1139.63,1180.64 1129.8,1180.81 1120,1179.5C 1015.26,978.342 910.255,777.342 805,576.5C 801.056,570.271 800.723,563.938 804,557.5C 807.699,551.41 811.866,545.743 816.5,540.5 Z M 779.5,663.5 C 872.515,834.515 965.348,1005.85 1058,1177.5C 1058.72,1179.11 1058.55,1180.61 1057.5,1182C 1041.8,1181.54 1026.13,1180.37 1010.5,1178.5C 987.728,1133.29 965.228,1087.96 943,1042.5C 934.245,1041.68 925.411,1041.18 916.5,1041C 819.833,1040.33 723.167,1040.33 626.5,1041C 602.118,1085.59 578.118,1130.43 554.5,1175.5C 538.51,1176.67 522.51,1176.83 506.5,1176C 597.398,1005.03 688.398,834.2 779.5,663.5 Z"/></g>
<g><path style="opacity:0.981" fill="#d39403" d="M 775.5,756.5 C 778.263,756.744 780.429,758.077 782,760.5C 814.675,819.18 846.841,878.18 878.5,937.5C 876.577,938.308 874.577,938.808 872.5,939C 816.5,939.333 760.5,939.667 704.5,940C 696.129,948.703 688.129,957.703 680.5,967C 683.638,968.244 686.972,968.911 690.5,969C 739.158,970.161 787.825,970.828 836.5,971C 856.868,971.136 877.201,971.969 897.5,973.5C 903.291,980.968 908.291,988.968 912.5,997.5C 910.234,998.314 907.9,998.814 905.5,999C 832.167,999.667 758.833,999.667 685.5,999C 671.346,998.983 657.346,998.316 643.5,997C 686.893,916.456 730.893,836.289 775.5,756.5 Z"/></g>
</svg>
